<mxfile host="app.diagrams.net" modified="2024-04-20T14:25:48.898Z" agent="Mozilla/5.0 (Windows NT 10.0; Win64; x64) AppleWebKit/537.36 (KHTML, like Gecko) Chrome/117.0.0.0 Safari/537.36 Edg/117.0.2045.43" etag="Q8IYcnOntkyqBJDx2bfg" version="24.2.7" type="github">
  <diagram name="PÃ¡gina-1" id="em5ghtpq82xFfGyIh8iH">
    <mxGraphModel dx="1701" dy="948" grid="1" gridSize="10" guides="1" tooltips="1" connect="1" arrows="1" fold="1" page="1" pageScale="1" pageWidth="827" pageHeight="1169" math="0" shadow="0">
      <root>
        <mxCell id="0" />
        <mxCell id="1" parent="0" />
        <mxCell id="yTB0dnUYsZWWMXZuaUA3-1" value="" style="edgeStyle=orthogonalEdgeStyle;rounded=0;orthogonalLoop=1;jettySize=auto;html=1;entryX=0;entryY=0.5;entryDx=0;entryDy=0;endArrow=none;endFill=0;" edge="1" parent="1" source="yTB0dnUYsZWWMXZuaUA3-3" target="yTB0dnUYsZWWMXZuaUA3-5">
          <mxGeometry relative="1" as="geometry">
            <mxPoint x="374" y="230" as="targetPoint" />
          </mxGeometry>
        </mxCell>
        <mxCell id="yTB0dnUYsZWWMXZuaUA3-14" style="edgeStyle=orthogonalEdgeStyle;rounded=0;orthogonalLoop=1;jettySize=auto;html=1;endArrow=none;endFill=0;" edge="1" parent="1" source="yTB0dnUYsZWWMXZuaUA3-3" target="yTB0dnUYsZWWMXZuaUA3-15">
          <mxGeometry relative="1" as="geometry">
            <mxPoint x="320" y="360" as="targetPoint" />
          </mxGeometry>
        </mxCell>
        <mxCell id="yTB0dnUYsZWWMXZuaUA3-3" value="Trabajador" style="shape=umlActor;verticalLabelPosition=bottom;verticalAlign=top;html=1;outlineConnect=0;" vertex="1" parent="1">
          <mxGeometry x="90" y="280" width="30" height="60" as="geometry" />
        </mxCell>
        <mxCell id="yTB0dnUYsZWWMXZuaUA3-5" value="Ver consultas" style="ellipse;whiteSpace=wrap;html=1;" vertex="1" parent="1">
          <mxGeometry x="285" y="210" width="110" height="40" as="geometry" />
        </mxCell>
        <mxCell id="yTB0dnUYsZWWMXZuaUA3-15" value="Eliminar Consultas" style="ellipse;whiteSpace=wrap;html=1;" vertex="1" parent="1">
          <mxGeometry x="280" y="300" width="120" height="50" as="geometry" />
        </mxCell>
      </root>
    </mxGraphModel>
  </diagram>
</mxfile>
